# Blender v2.83.4 OBJ File: ''
# www.blender.org
o Cylinder
v 0.000000 -1.000000 -1.000000
v 0.000000 1.000000 -1.000000
v 0.195090 -1.000000 -0.980785
v 0.195090 1.000000 -0.980785
v 0.382683 -1.000000 -0.923880
v 0.382683 1.000000 -0.923880
v 0.555570 -1.000000 -0.831470
v 0.555570 1.000000 -0.831470
v 0.707107 -1.000000 -0.707107
v 0.707107 1.000000 -0.707107
v 0.831470 -1.000000 -0.555570
v 0.831470 1.000000 -0.555570
v 0.923880 -1.000000 -0.382683
v 0.923880 1.000000 -0.382683
v 0.980785 -1.000000 -0.195090
v 0.980785 1.000000 -0.195090
v 1.000000 -1.000000 -0.000000
v 1.000000 1.000000 -0.000000
v 0.980785 -1.000000 0.195090
v 0.980785 1.000000 0.195090
v 0.923880 -1.000000 0.382683
v 0.923880 1.000000 0.382683
v 0.831470 -1.000000 0.555570
v 0.831470 1.000000 0.555570
v 0.707107 -1.000000 0.707107
v 0.707107 1.000000 0.707107
v 0.555570 -1.000000 0.831470
v 0.555570 1.000000 0.831470
v 0.382683 -1.000000 0.923880
v 0.382683 1.000000 0.923880
v 0.195090 -1.000000 0.980785
v 0.195090 1.000000 0.980785
v -0.000000 -1.000000 1.000000
v -0.000000 1.000000 1.000000
v -0.195091 -1.000000 0.980785
v -0.195091 1.000000 0.980785
v -0.382684 -1.000000 0.923879
v -0.382684 1.000000 0.923879
v -0.555571 -1.000000 0.831469
v -0.555571 1.000000 0.831469
v -0.707107 -1.000000 0.707106
v -0.707107 1.000000 0.707106
v -0.831470 -1.000000 0.555570
v -0.831470 1.000000 0.555570
v -0.923880 -1.000000 0.382683
v -0.923880 1.000000 0.382683
v -0.980785 -1.000000 0.195089
v -0.980785 1.000000 0.195089
v -1.000000 -1.000000 -0.000001
v -1.000000 1.000000 -0.000001
v -0.980785 -1.000000 -0.195091
v -0.980785 1.000000 -0.195091
v -0.923879 -1.000000 -0.382684
v -0.923879 1.000000 -0.382684
v -0.831469 -1.000000 -0.555571
v -0.831469 1.000000 -0.555571
v -0.707106 -1.000000 -0.707108
v -0.707106 1.000000 -0.707108
v -0.555569 -1.000000 -0.831470
v -0.555569 1.000000 -0.831470
v -0.382682 -1.000000 -0.923880
v -0.382682 1.000000 -0.923880
v -0.195089 -1.000000 -0.980786
v -0.195089 1.000000 -0.980786
vt 1.000000 1.000000
vt 0.968750 0.500000
vt 1.000000 0.500000
vt 0.968750 1.000000
vt 0.937500 0.500000
vt 0.937500 1.000000
vt 0.906250 0.500000
vt 0.906250 1.000000
vt 0.875000 0.500000
vt 0.875000 1.000000
vt 0.843750 0.500000
vt 0.843750 1.000000
vt 0.812500 0.500000
vt 0.812500 1.000000
vt 0.781250 0.500000
vt 0.781250 1.000000
vt 0.750000 0.500000
vt 0.750000 1.000000
vt 0.718750 0.500000
vt 0.718750 1.000000
vt 0.687500 0.500000
vt 0.687500 1.000000
vt 0.656250 0.500000
vt 0.656250 1.000000
vt 0.625000 0.500000
vt 0.625000 1.000000
vt 0.593750 0.500000
vt 0.593750 1.000000
vt 0.562500 0.500000
vt 0.562500 1.000000
vt 0.531250 0.500000
vt 0.531250 1.000000
vt 0.500000 0.500000
vt 0.500000 1.000000
vt 0.468750 0.500000
vt 0.468750 1.000000
vt 0.437500 0.500000
vt 0.437500 1.000000
vt 0.406250 0.500000
vt 0.406250 1.000000
vt 0.375000 0.500000
vt 0.375000 1.000000
vt 0.343750 0.500000
vt 0.343750 1.000000
vt 0.312500 0.500000
vt 0.312500 1.000000
vt 0.281250 0.500000
vt 0.281250 1.000000
vt 0.250000 0.500000
vt 0.250000 1.000000
vt 0.218750 0.500000
vt 0.218750 1.000000
vt 0.187500 0.500000
vt 0.187500 1.000000
vt 0.156250 0.500000
vt 0.156250 1.000000
vt 0.125000 0.500000
vt 0.125000 1.000000
vt 0.093750 0.500000
vt 0.093750 1.000000
vt 0.062500 0.500000
vt 0.028269 0.341844
vt 0.158156 0.028269
vt 0.471731 0.158156
vt 0.062500 1.000000
vt 0.031250 0.500000
vt 0.031250 1.000000
vt 0.000000 0.500000
vt 0.985388 0.296822
vt 0.796822 0.014612
vt 0.514611 0.203179
vt 0.341844 0.471731
vt 0.296822 0.485388
vt 0.250000 0.490000
vt 0.203179 0.485389
vt 0.158156 0.471731
vt 0.116663 0.449553
vt 0.080295 0.419706
vt 0.050447 0.383337
vt 0.014612 0.296822
vt 0.010000 0.250000
vt 0.014611 0.203179
vt 0.028269 0.158156
vt 0.050447 0.116663
vt 0.080294 0.080294
vt 0.116663 0.050447
vt 0.203178 0.014612
vt 0.250000 0.010000
vt 0.296822 0.014612
vt 0.341844 0.028269
vt 0.383337 0.050447
vt 0.419706 0.080294
vt 0.449553 0.116663
vt 0.485388 0.203178
vt 0.490000 0.250000
vt 0.485388 0.296822
vt 0.471731 0.341844
vt 0.449553 0.383337
vt 0.419706 0.419706
vt 0.383337 0.449553
vt 0.000000 1.000000
vt 0.703179 0.485389
vt 0.750000 0.490000
vt 0.796822 0.485388
vt 0.841844 0.471731
vt 0.883337 0.449553
vt 0.919706 0.419706
vt 0.949553 0.383337
vt 0.971731 0.341844
vt 0.990000 0.250000
vt 0.985388 0.203178
vt 0.971731 0.158156
vt 0.949553 0.116663
vt 0.919706 0.080294
vt 0.883337 0.050447
vt 0.841844 0.028269
vt 0.750000 0.010000
vt 0.703178 0.014612
vt 0.658156 0.028269
vt 0.616663 0.050447
vt 0.580294 0.080294
vt 0.550447 0.116663
vt 0.528269 0.158156
vt 0.510000 0.250000
vt 0.514612 0.296822
vt 0.528269 0.341844
vt 0.550447 0.383337
vt 0.580295 0.419706
vt 0.616663 0.449553
vt 0.658156 0.471731
vn 0.0980 0.0000 -0.9952
vn 0.2903 0.0000 -0.9569
vn 0.4714 0.0000 -0.8819
vn 0.6344 0.0000 -0.7730
vn 0.7730 0.0000 -0.6344
vn 0.8819 0.0000 -0.4714
vn 0.9569 0.0000 -0.2903
vn 0.9952 0.0000 -0.0980
vn 0.9952 0.0000 0.0980
vn 0.9569 0.0000 0.2903
vn 0.8819 0.0000 0.4714
vn 0.7730 0.0000 0.6344
vn 0.6344 0.0000 0.7730
vn 0.4714 0.0000 0.8819
vn 0.2903 0.0000 0.9569
vn 0.0980 0.0000 0.9952
vn -0.0980 0.0000 0.9952
vn -0.2903 0.0000 0.9569
vn -0.4714 0.0000 0.8819
vn -0.6344 0.0000 0.7730
vn -0.7730 0.0000 0.6344
vn -0.8819 0.0000 0.4714
vn -0.9569 0.0000 0.2903
vn -0.9952 0.0000 0.0980
vn -0.9952 0.0000 -0.0980
vn -0.9569 0.0000 -0.2903
vn -0.8819 0.0000 -0.4714
vn -0.7730 0.0000 -0.6344
vn -0.6344 0.0000 -0.7730
vn -0.4714 0.0000 -0.8819
vn 0.0000 1.0000 0.0000
vn -0.2903 0.0000 -0.9569
vn -0.0980 0.0000 -0.9952
vn 0.0000 -1.0000 0.0000
s off
f 2/1/1 3/2/1 1/3/1
f 4/4/2 5/5/2 3/2/2
f 6/6/3 7/7/3 5/5/3
f 8/8/4 9/9/4 7/7/4
f 10/10/5 11/11/5 9/9/5
f 12/12/6 13/13/6 11/11/6
f 14/14/7 15/15/7 13/13/7
f 16/16/8 17/17/8 15/15/8
f 18/18/9 19/19/9 17/17/9
f 20/20/10 21/21/10 19/19/10
f 22/22/11 23/23/11 21/21/11
f 24/24/12 25/25/12 23/23/12
f 26/26/13 27/27/13 25/25/13
f 28/28/14 29/29/14 27/27/14
f 30/30/15 31/31/15 29/29/15
f 32/32/16 33/33/16 31/31/16
f 34/34/17 35/35/17 33/33/17
f 36/36/18 37/37/18 35/35/18
f 38/38/19 39/39/19 37/37/19
f 40/40/20 41/41/20 39/39/20
f 42/42/21 43/43/21 41/41/21
f 44/44/22 45/45/22 43/43/22
f 46/46/23 47/47/23 45/45/23
f 48/48/24 49/49/24 47/47/24
f 50/50/25 51/51/25 49/49/25
f 52/52/26 53/53/26 51/51/26
f 54/54/27 55/55/27 53/53/27
f 56/56/28 57/57/28 55/55/28
f 58/58/29 59/59/29 57/57/29
f 60/60/30 61/61/30 59/59/30
f 54/62/31 38/63/31 22/64/31
f 62/65/32 63/66/32 61/61/32
f 64/67/33 1/68/33 63/66/33
f 15/69/34 31/70/34 47/71/34
f 2/1/1 4/4/1 3/2/1
f 4/4/2 6/6/2 5/5/2
f 6/6/3 8/8/3 7/7/3
f 8/8/4 10/10/4 9/9/4
f 10/10/5 12/12/5 11/11/5
f 12/12/6 14/14/6 13/13/6
f 14/14/7 16/16/7 15/15/7
f 16/16/8 18/18/8 17/17/8
f 18/18/9 20/20/9 19/19/9
f 20/20/10 22/22/10 21/21/10
f 22/22/11 24/24/11 23/23/11
f 24/24/12 26/26/12 25/25/12
f 26/26/13 28/28/13 27/27/13
f 28/28/14 30/30/14 29/29/14
f 30/30/15 32/32/15 31/31/15
f 32/32/16 34/34/16 33/33/16
f 34/34/17 36/36/17 35/35/17
f 36/36/18 38/38/18 37/37/18
f 38/38/19 40/40/19 39/39/19
f 40/40/20 42/42/20 41/41/20
f 42/42/21 44/44/21 43/43/21
f 44/44/22 46/46/22 45/45/22
f 46/46/23 48/48/23 47/47/23
f 48/48/24 50/50/24 49/49/24
f 50/50/25 52/52/25 51/51/25
f 52/52/26 54/54/26 53/53/26
f 54/54/27 56/56/27 55/55/27
f 56/56/28 58/58/28 57/57/28
f 58/58/29 60/60/29 59/59/29
f 60/60/30 62/65/30 61/61/30
f 6/72/31 4/73/31 2/74/31
f 2/74/31 64/75/31 6/72/31
f 64/75/31 62/76/31 6/72/31
f 62/76/31 60/77/31 58/78/31
f 58/78/31 56/79/31 54/62/31
f 54/62/31 52/80/31 50/81/31
f 50/81/31 48/82/31 54/62/31
f 48/82/31 46/83/31 54/62/31
f 46/83/31 44/84/31 42/85/31
f 42/85/31 40/86/31 38/63/31
f 38/63/31 36/87/31 34/88/31
f 34/88/31 32/89/31 30/90/31
f 30/90/31 28/91/31 26/92/31
f 26/92/31 24/93/31 22/64/31
f 22/64/31 20/94/31 18/95/31
f 18/95/31 16/96/31 22/64/31
f 16/96/31 14/97/31 22/64/31
f 14/97/31 12/98/31 10/99/31
f 10/99/31 8/100/31 6/72/31
f 62/76/31 58/78/31 6/72/31
f 58/78/31 54/62/31 6/72/31
f 46/83/31 42/85/31 38/63/31
f 38/63/31 34/88/31 22/64/31
f 34/88/31 30/90/31 22/64/31
f 30/90/31 26/92/31 22/64/31
f 14/97/31 10/99/31 22/64/31
f 10/99/31 6/72/31 22/64/31
f 54/62/31 46/83/31 38/63/31
f 6/72/31 54/62/31 22/64/31
f 62/65/32 64/67/32 63/66/32
f 64/67/33 2/101/33 1/68/33
f 63/102/34 1/103/34 3/104/34
f 3/104/34 5/105/34 7/106/34
f 7/106/34 9/107/34 11/108/34
f 11/108/34 13/109/34 7/106/34
f 13/109/34 15/69/34 7/106/34
f 15/69/34 17/110/34 19/111/34
f 19/111/34 21/112/34 15/69/34
f 21/112/34 23/113/34 15/69/34
f 23/113/34 25/114/34 31/70/34
f 25/114/34 27/115/34 31/70/34
f 27/115/34 29/116/34 31/70/34
f 31/70/34 33/117/34 35/118/34
f 35/118/34 37/119/34 39/120/34
f 39/120/34 41/121/34 47/71/34
f 41/121/34 43/122/34 47/71/34
f 43/122/34 45/123/34 47/71/34
f 47/71/34 49/124/34 51/125/34
f 51/125/34 53/126/34 55/127/34
f 55/127/34 57/128/34 59/129/34
f 59/129/34 61/130/34 63/102/34
f 63/102/34 3/104/34 7/106/34
f 31/70/34 35/118/34 47/71/34
f 35/118/34 39/120/34 47/71/34
f 47/71/34 51/125/34 63/102/34
f 51/125/34 55/127/34 63/102/34
f 55/127/34 59/129/34 63/102/34
f 63/102/34 7/106/34 15/69/34
f 15/69/34 23/113/34 31/70/34
f 63/102/34 15/69/34 47/71/34
o Icosphere_Icosphere.001
v 0.000000 0.161641 0.000000
v 1.118510 1.016098 0.302017
v -0.427225 1.016097 0.488679
v -1.382553 1.016104 0.000000
v -0.427225 1.016097 -0.488679
v 1.118510 1.016098 -0.302017
v 0.427225 2.398670 0.488679
v -1.118510 2.398670 0.302017
v -1.118510 2.398670 -0.302017
v 0.427225 2.398670 -0.488679
v 1.382553 2.398664 0.000000
v 0.000000 3.253126 0.000000
v -0.251114 0.392491 0.287236
v 0.657439 0.392491 0.177520
v 0.406327 0.894729 0.464759
v 1.314883 0.894731 0.000000
v 0.657439 0.392491 -0.177520
v -0.812643 0.392495 0.000000
v -1.063763 0.894731 0.287237
v -0.251114 0.392491 -0.287236
v -1.063763 0.894731 -0.287237
v 0.406327 0.894729 -0.464759
v 1.470090 1.707384 0.177521
v 1.470090 1.707384 -0.177521
v 0.000000 1.707384 0.574477
v 0.908565 1.707384 0.464762
v -1.470090 1.707384 0.177521
v -0.908565 1.707384 0.464762
v -0.908565 1.707384 -0.464762
v -1.470090 1.707384 -0.177521
v 0.908565 1.707384 -0.464762
v 0.000000 1.707384 -0.574477
v 1.063763 2.520036 0.287237
v -0.406327 2.520039 0.464759
v -1.314883 2.520036 0.000000
v -0.406327 2.520039 -0.464759
v 1.063763 2.520036 -0.287237
v 0.251114 3.022276 0.287236
v 0.812643 3.022272 0.000000
v -0.657439 3.022276 0.177520
v -0.657439 3.022276 -0.177520
v 0.251114 3.022276 -0.287236
vt 0.818181 0.000000
vt 0.772726 0.078731
vt 0.863635 0.078731
vt 0.727272 0.157461
vt 0.681818 0.078731
vt 0.636363 0.157461
vt 0.090909 0.000000
vt 0.045454 0.078731
vt 0.136363 0.078731
vt 0.272727 0.000000
vt 0.227273 0.078731
vt 0.318182 0.078731
vt 0.454545 0.000000
vt 0.409090 0.078731
vt 0.500000 0.078731
vt 0.681818 0.236191
vt 0.909090 0.157461
vt 0.818181 0.157461
vt 0.863635 0.236191
vt 0.181818 0.157461
vt 0.090909 0.157461
vt 0.136363 0.236191
vt 0.363636 0.157461
vt 0.272727 0.157461
vt 0.318182 0.236191
vt 0.545454 0.157461
vt 0.454545 0.157461
vt 0.500000 0.236191
vt 0.772726 0.236191
vt 0.954545 0.236191
vt 0.227273 0.236191
vt 0.409090 0.236191
vt 0.590909 0.236191
vt 0.818181 0.314921
vt 0.727272 0.314921
vt 0.772726 0.393651
vt 1.000000 0.314921
vt 0.909091 0.314921
vt 0.954545 0.393651
vt 0.272727 0.314921
vt 0.181818 0.314921
vt 0.227273 0.393651
vt 0.454545 0.314921
vt 0.363636 0.314921
vt 0.409090 0.393651
vt 0.636363 0.314921
vt 0.545454 0.314921
vt 0.590909 0.393651
vt 0.500000 0.393651
vt 0.545454 0.472382
vt 0.318182 0.393651
vt 0.363636 0.472382
vt 0.136363 0.393651
vt 0.181818 0.472382
vt 0.090909 0.314921
vt 0.863635 0.393651
vt 0.909090 0.472382
vt 0.681818 0.393651
vt 0.727272 0.472382
vt 0.045454 0.236191
vt 0.000000 0.157461
vt 0.590909 0.078731
vt 0.636363 0.000000
vn 0.0805 -0.7414 0.6662
vn 0.5819 -0.5498 0.5993
vn -0.2410 -0.8485 0.4712
vn -0.2410 -0.8485 -0.4712
vn 0.0805 -0.7414 -0.6662
vn 0.7520 -0.2745 0.5993
vn 0.0097 -0.1290 0.9916
vn -0.6991 -0.2596 0.6662
vn -0.2709 -0.1558 -0.9499
vn 0.2446 -0.1512 -0.9578
vn 0.4543 -0.0711 0.8880
vn -0.1197 -0.0491 0.9916
vn -0.9921 -0.1256 0.0000
vn -0.1197 -0.0491 -0.9916
vn 0.4543 -0.0711 -0.8880
vn 0.2197 0.3555 0.9085
vn -0.2667 0.3745 0.8880
vn -0.5819 0.5498 -0.5993
vn 0.0182 0.3120 -0.9499
vn 0.6511 0.5950 -0.4712
vn 0.2410 0.8485 -0.4712
vn 0.3666 0.5932 -0.7167
vn 0.2197 0.3555 -0.9085
vn -0.0805 0.7414 -0.6662
vn -0.1069 0.4528 -0.8852
vn -0.2667 0.3745 -0.8880
vn -0.3313 0.9435 0.0000
vn -0.6071 0.7947 0.0000
vn -0.5819 0.5498 0.5993
vn -0.0805 0.7414 0.6662
vn -0.1069 0.4528 0.8852
vn 0.0182 0.3120 0.9499
vn 0.2410 0.8485 0.4712
vn 0.3666 0.5932 0.7167
vn 0.6511 0.5950 0.4712
vn 0.6991 0.2596 -0.6662
vn 0.4528 0.1069 -0.8852
vn 0.2709 0.1558 -0.9499
vn -0.0097 0.1290 -0.9916
vn -0.1196 0.0739 -0.9901
vn -0.2446 0.1512 -0.9578
vn -0.7520 0.2745 -0.5993
vn -0.9822 0.1876 0.0000
vn -0.7520 0.2745 0.5993
vn -0.2446 0.1512 0.9578
vn -0.1196 0.0739 0.9901
vn -0.0097 0.1290 0.9916
vn 0.2709 0.1558 0.9499
vn 0.4528 0.1069 0.8852
vn 0.6991 0.2596 0.6662
vn 0.1197 0.0491 -0.9916
vn 0.1196 -0.0739 -0.9901
vn 0.0097 -0.1290 -0.9916
vn -0.4543 0.0711 -0.8880
vn -0.4528 -0.1069 -0.8852
vn -0.6991 -0.2596 -0.6662
vn -0.4543 0.0711 0.8880
vn -0.4528 -0.1069 0.8852
vn -0.2709 -0.1558 0.9499
vn 0.1197 0.0491 0.9916
vn 0.1196 -0.0739 0.9901
vn 0.2446 -0.1512 0.9578
vn 0.9921 0.1256 0.0000
vn 0.9822 -0.1876 0.0000
vn 0.7520 -0.2745 -0.5993
vn 0.2667 -0.3745 -0.8880
vn 0.1069 -0.4528 -0.8852
vn -0.0182 -0.3120 -0.9499
vn -0.2197 -0.3555 -0.9085
vn -0.3666 -0.5932 -0.7167
vn -0.6511 -0.5950 -0.4712
vn -0.6511 -0.5950 0.4712
vn -0.3666 -0.5932 0.7167
vn -0.2197 -0.3555 0.9085
vn 0.5819 -0.5498 -0.5993
vn 0.6071 -0.7947 0.0000
vn 0.3313 -0.9435 0.0000
vn -0.0182 -0.3120 0.9499
vn 0.1069 -0.4528 0.8852
vn 0.2667 -0.3745 0.8880
s off
f 65/131/35 78/132/35 77/133/35
f 66/134/36 78/135/36 80/136/36
f 65/137/37 77/138/37 82/139/37
f 65/140/38 82/141/38 84/142/38
f 65/143/39 84/144/39 81/145/39
f 66/134/40 80/136/40 87/146/40
f 67/147/41 79/148/41 89/149/41
f 68/150/42 83/151/42 91/152/42
f 69/153/43 85/154/43 93/155/43
f 70/156/44 86/157/44 95/158/44
f 66/134/45 87/146/45 90/159/45
f 67/147/46 89/149/46 92/160/46
f 68/150/47 91/152/47 94/161/47
f 69/153/48 93/155/48 96/162/48
f 70/156/49 95/158/49 88/163/49
f 71/164/50 97/165/50 102/166/50
f 72/167/51 98/168/51 104/169/51
f 73/170/52 99/171/52 105/172/52
f 74/173/53 100/174/53 106/175/53
f 75/176/54 101/177/54 103/178/54
f 103/178/55 106/179/55 76/180/55
f 103/178/56 101/177/56 106/179/56
f 101/177/57 74/173/57 106/179/57
f 106/175/58 105/181/58 76/182/58
f 106/175/59 100/174/59 105/181/59
f 100/174/60 73/170/60 105/181/60
f 105/172/61 104/183/61 76/184/61
f 105/172/62 99/171/62 104/183/62
f 99/171/63 72/185/63 104/183/63
f 104/169/64 102/186/64 76/187/64
f 104/169/65 98/168/65 102/186/65
f 98/168/66 71/164/66 102/186/66
f 102/166/67 103/188/67 76/189/67
f 102/166/68 97/165/68 103/188/68
f 97/165/69 75/176/69 103/188/69
f 88/163/70 101/177/70 75/176/70
f 88/163/71 95/158/71 101/177/71
f 95/158/72 74/173/72 101/177/72
f 96/162/73 100/174/73 74/173/73
f 96/162/74 93/155/74 100/174/74
f 93/155/75 73/170/75 100/174/75
f 94/161/76 99/171/76 73/170/76
f 94/161/77 91/152/77 99/171/77
f 91/152/78 72/185/78 99/171/78
f 92/160/79 98/168/79 72/167/79
f 92/160/80 89/149/80 98/168/80
f 89/149/81 71/164/81 98/168/81
f 90/159/82 97/165/82 71/164/82
f 90/159/83 87/146/83 97/165/83
f 87/146/84 75/176/84 97/165/84
f 95/158/85 96/162/85 74/173/85
f 95/158/86 86/157/86 96/162/86
f 86/157/87 69/153/87 96/162/87
f 93/155/88 94/161/88 73/170/88
f 93/155/89 85/154/89 94/161/89
f 85/154/90 68/150/90 94/161/90
f 91/152/91 92/190/91 72/185/91
f 91/152/92 83/151/92 92/190/92
f 83/151/93 67/191/93 92/190/93
f 89/149/94 90/159/94 71/164/94
f 89/149/95 79/148/95 90/159/95
f 79/148/96 66/134/96 90/159/96
f 87/146/97 88/163/97 75/176/97
f 87/146/98 80/136/98 88/163/98
f 80/136/99 70/156/99 88/163/99
f 81/145/100 86/157/100 70/156/100
f 81/145/101 84/144/101 86/157/101
f 84/144/102 69/153/102 86/157/102
f 84/142/103 85/154/103 69/153/103
f 84/142/104 82/141/104 85/154/104
f 82/141/105 68/150/105 85/154/105
f 82/139/106 83/151/106 68/150/106
f 82/139/107 77/138/107 83/151/107
f 77/138/108 67/191/108 83/151/108
f 80/136/109 81/192/109 70/156/109
f 80/136/110 78/135/110 81/192/110
f 78/135/111 65/193/111 81/192/111
f 77/133/112 79/148/112 67/147/112
f 77/133/113 78/132/113 79/148/113
f 78/132/114 66/134/114 79/148/114
